<svg width="32" height="32" viewBox="0 0 32 32" fill="none" xmlns="http://www.w3.org/2000/svg">
<path d="M27.1992 8.63672H4.80086C4.65546 8.63672 4.5376 8.75595 4.5376 8.90304V10.5725C4.5376 10.7196 4.65546 10.8388 4.80086 10.8388H27.1992C27.3446 10.8388 27.4625 10.7196 27.4625 10.5725V8.90304C27.4625 8.75595 27.3446 8.63672 27.1992 8.63672Z" fill="#37383A"/>
<path d="M28.3467 11.1821H3.65308V25.9777H28.3467V11.1821Z" fill="#C5C5C5"/>
<path d="M29.0699 25.3594H2.93001C2.78461 25.3594 2.66675 25.4786 2.66675 25.6257V26.4006C2.66675 26.5477 2.78461 26.6669 2.93001 26.6669H29.0699C29.2153 26.6669 29.3331 26.5477 29.3331 26.4006V25.6257C29.3331 25.4786 29.2153 25.3594 29.0699 25.3594Z" fill="#505250"/>
<path d="M29.0699 10.4946H2.93001C2.78461 10.4946 2.66675 10.6139 2.66675 10.7609V11.5358C2.66675 11.6829 2.78461 11.8021 2.93001 11.8021H29.0699C29.2153 11.8021 29.3331 11.6829 29.3331 11.5358V10.7609C29.3331 10.6139 29.2153 10.4946 29.0699 10.4946Z" fill="#505250"/>
<path d="M23.8833 13.4543H8.11682C7.74488 13.4543 7.44336 13.7594 7.44336 14.1356V23.0267C7.44336 23.403 7.74488 23.708 8.11682 23.708H23.8833C24.2553 23.708 24.5568 23.403 24.5568 23.0267V14.1356C24.5568 13.7594 24.2553 13.4543 23.8833 13.4543Z" fill="white"/>
<path d="M15.8299 15.3801L13.6531 19.0253H15.4605L14.3333 22.9499L18.3469 17.9195H16.4422L18.1911 15.3801H15.8299Z" fill="#FFC300"/>
<path d="M6.73151 7.94775H8.97639C9.01247 7.94775 9.04707 7.96225 9.07259 7.98807C9.0981 8.01388 9.11244 8.04888 9.11244 8.08539V10.494H6.59546V8.08539C6.59546 8.04888 6.60979 8.01388 6.63531 7.98807C6.66082 7.96225 6.69543 7.94775 6.73151 7.94775Z" fill="#008FFF"/>
<path d="M24.0782 7.94775H26.3231C26.3591 7.94775 26.3938 7.96225 26.4193 7.98807C26.4448 8.01388 26.4591 8.04888 26.4591 8.08539V10.494H23.9421V8.08539C23.9421 8.04888 23.9565 8.01388 23.982 7.98807C24.0075 7.96225 24.0421 7.94775 24.0782 7.94775Z" fill="#F00C1E"/>
<path d="M11.0341 7.55189C11.0343 7.32855 11.1221 7.11441 11.2782 6.95649C11.4343 6.79856 11.646 6.70976 11.8668 6.70958H20.1327C20.3534 6.70976 20.5651 6.79856 20.7212 6.95649C20.8773 7.11441 20.9651 7.32855 20.9653 7.55189V8.63644H22.3258V7.55189C22.3253 6.96364 22.094 6.39964 21.6829 5.98368C21.2717 5.56772 20.7142 5.3338 20.1327 5.33325H11.8668C11.2853 5.3338 10.7277 5.56772 10.3165 5.98368C9.90536 6.39964 9.67412 6.96364 9.67358 7.55189V8.63644H11.0341V7.55189Z" fill="#505250"/>
</svg>
