     <svg
        xmlns="http://www.w3.org/2000/svg"
        width="20"
        height="20"
        viewBox="0 0 20 20"
        fill="none"
      >
        <path
          fillRule="evenodd"
          clipRule="evenodd"
          d="M9.99999 18.3346C14.6024 18.3346 18.3333 14.6037 18.3333 10.0013C18.3333 5.39893 14.6024 1.66797 9.99999 1.66797C5.39762 1.66797 1.66666 5.39893 1.66666 10.0013C1.66666 14.6037 5.39762 18.3346 9.99999 18.3346ZM9.16666 6.66797C9.16666 6.20773 9.53975 5.83464 9.99999 5.83464C10.4602 5.83464 10.8333 6.20773 10.8333 6.66797V10.0013C10.8333 10.4615 10.4602 10.8346 9.99999 10.8346C9.53975 10.8346 9.16666 10.4615 9.16666 10.0013V6.66797ZM10.8333 13.3346C10.8333 13.7949 10.4602 14.168 9.99999 14.168C9.53975 14.168 9.16666 13.7949 9.16666 13.3346C9.16666 12.8744 9.53975 12.5013 9.99999 12.5013C10.4602 12.5013 10.8333 12.8744 10.8333 13.3346Z"
          fill='#FF6D62'
        />
      </svg>