<svg width="40" height="40" viewBox="0 0 40 40" fill="none" xmlns="http://www.w3.org/2000/svg">
<path d="M10 6.66667C10 5.74619 10.7462 5 11.6667 5H15C15.9205 5 16.6667 5.74619 16.6667 6.66667V8.33333C16.6667 9.25381 15.9205 10 15 10H11.6667C10.7462 10 10 9.25381 10 8.33333V6.66667Z" fill="#EF9E27"/>
<path fill-rule="evenodd" clip-rule="evenodd" d="M22.8199 8.81267L31.1696 17.039C31.4876 17.3523 31.6666 17.78 31.6666 18.2263V33.3333C31.6666 34.2537 30.9204 34.9999 29.9999 34.9999H9.99992C9.07944 34.9999 8.33325 34.2537 8.33325 33.3333V9.99992C8.33325 9.07944 9.07944 8.33325 9.99992 8.33325H21.6502C22.0879 8.33325 22.508 8.50546 22.8199 8.81267ZM20.101 13.434C19.1247 14.4103 19.1247 15.9932 20.101 16.9695L23.6366 20.505C24.6129 21.4814 26.1958 21.4814 27.1721 20.505C28.1484 19.5287 28.1484 17.9458 27.1721 16.9695L23.6366 13.434C22.6602 12.4577 21.0773 12.4577 20.101 13.434Z" fill="#F7C422"/>
<path fill-rule="evenodd" clip-rule="evenodd" d="M22.8094 11.1421L21.6502 9.99992L9.99992 9.99992L9.99992 33.3333H29.9999V18.2263L29.4318 17.6665C29.7994 19.0545 29.439 20.5952 28.3506 21.6836C26.7234 23.3107 24.0852 23.3107 22.458 21.6836L18.9225 18.148C17.2953 16.5208 17.2953 13.8826 18.9225 12.2555C19.977 11.201 21.4561 10.8298 22.8094 11.1421ZM31.1696 17.039L22.8199 8.81267C22.508 8.50546 22.0879 8.33325 21.6502 8.33325H9.99992C9.07944 8.33325 8.33325 9.07944 8.33325 9.99992V33.3333C8.33325 34.2537 9.07944 34.9999 9.99992 34.9999H29.9999C30.9204 34.9999 31.6666 34.2537 31.6666 33.3333V18.2263C31.6666 17.78 31.4876 17.3523 31.1696 17.039ZM20.101 16.9695C19.1247 15.9932 19.1247 14.4103 20.101 13.434C21.0773 12.4577 22.6602 12.4577 23.6366 13.434L27.1721 16.9695C28.1484 17.9458 28.1484 19.5287 27.1721 20.505C26.1958 21.4814 24.6129 21.4814 23.6366 20.505L20.101 16.9695Z" fill="#F7C422"/>
<path d="M19.9999 27.5001C19.9999 29.341 18.5075 30.8334 16.6666 30.8334C14.8256 30.8334 13.3333 29.341 13.3333 27.5001C13.3333 24.1667 16.6666 21.6667 16.6666 21.6667C16.6666 21.6667 19.9999 24.1667 19.9999 27.5001Z" fill="#3A4045"/>
</svg>
