<svg width="20" height="20" viewBox="0 0 20 20" fill="none" xmlns="http://www.w3.org/2000/svg">
<path fill-rule="evenodd" clip-rule="evenodd" d="M9.99996 18.3334C14.6023 18.3334 18.3333 14.6024 18.3333 10C18.3333 5.39765 14.6023 1.66669 9.99996 1.66669C5.39759 1.66669 1.66663 5.39765 1.66663 10C1.66663 14.6024 5.39759 18.3334 9.99996 18.3334ZM13.8228 7.88859C14.0374 7.61821 13.9922 7.22508 13.7218 7.01049C13.4515 6.79591 13.0583 6.84113 12.8437 7.1115L9.15917 11.754C9.09172 11.839 9.0178 11.8688 8.96075 11.8741C8.90466 11.8793 8.83572 11.8639 8.76582 11.8005L7.08657 10.2771C6.83091 10.0452 6.43565 10.0644 6.20373 10.32C5.9718 10.5757 5.99104 10.971 6.24669 11.2029L7.92594 12.7263C8.59736 13.3354 9.58444 13.2289 10.1383 12.5311L13.8228 7.88859Z" fill="#5DD57B"/>
</svg>
