<svg width="32" height="32" viewBox="0 0 32 32" fill="none" xmlns="http://www.w3.org/2000/svg">
<circle cx="16.0001" cy="16.0001" r="13.3333" fill="#505250"/>
<path d="M15.9992 24.7425C20.7847 24.7425 24.6641 20.8447 24.6641 16.0365C24.6641 11.2284 20.7847 7.33057 15.9992 7.33057C11.2137 7.33057 7.33423 11.2284 7.33423 16.0365C7.33423 20.8447 11.2137 24.7425 15.9992 24.7425Z" fill="#3C3C3C"/>
<path d="M15.9993 23.6092C20.1619 23.6092 23.5364 20.2188 23.5364 16.0364C23.5364 11.8541 20.1619 8.46362 15.9993 8.46362C11.8366 8.46362 8.46216 11.8541 8.46216 16.0364C8.46216 20.2188 11.8366 23.6092 15.9993 23.6092Z" fill="#C5C5C5"/>
<path d="M15.0921 19.339L14.1077 21.0549C14.0164 21.2141 13.9684 21.3946 13.9685 21.5783C13.9686 21.762 14.0167 21.9424 14.1081 22.1015C14.1996 22.2606 14.331 22.3927 14.4893 22.4846C14.6476 22.5765 14.8271 22.625 15.01 22.6252H16.9804C17.1634 22.6253 17.3432 22.577 17.5017 22.4852C17.6602 22.3934 17.7919 22.2613 17.8835 22.1022C17.9751 21.943 18.0234 21.7625 18.0235 21.5787C18.0237 21.3948 17.9756 21.2142 17.8843 21.0549L16.8983 19.339C16.8065 19.18 16.6748 19.0481 16.5163 18.9564C16.3578 18.8647 16.1781 18.8164 15.9952 18.8164C15.8123 18.8164 15.6326 18.8647 15.4741 18.9564C15.3156 19.0481 15.1839 19.18 15.0921 19.339Z" fill="#E5E6EB"/>
<path d="M18.3936 18.476L19.3796 20.1919C19.4712 20.3509 19.6028 20.4829 19.7611 20.5746C19.9195 20.6664 20.0991 20.7147 20.2819 20.7147C20.4647 20.7147 20.6443 20.6664 20.8027 20.5746C20.961 20.4829 21.0926 20.3509 21.1842 20.1919L22.1702 18.476C22.2615 18.3168 22.3095 18.1364 22.3094 17.9527C22.3093 17.769 22.2612 17.5885 22.1698 17.4295C22.0783 17.2704 21.9469 17.1382 21.7886 17.0463C21.6303 16.9544 21.4508 16.9059 21.2679 16.9058H19.2975C19.1145 16.9057 18.9347 16.9539 18.7762 17.0457C18.6177 17.1375 18.486 17.2696 18.3944 17.4287C18.3028 17.5879 18.2545 17.7684 18.2544 17.9523C18.2542 18.1361 18.3023 18.3167 18.3936 18.476Z" fill="#E5E6EB"/>
<path d="M19.3005 15.1786H21.2807C21.4635 15.1784 21.643 15.13 21.8013 15.038C21.9596 14.9461 22.0911 14.814 22.1825 14.6549C22.2739 14.4958 22.322 14.3154 22.3221 14.1317C22.3222 13.948 22.2742 13.7675 22.1829 13.6084L21.1969 11.894C21.1056 11.7347 20.9742 11.6023 20.8158 11.5102C20.6574 11.4181 20.4776 11.3696 20.2946 11.3696C20.1116 11.3696 19.9318 11.4181 19.7734 11.5102C19.615 11.6023 19.4836 11.7347 19.3924 11.894L18.4063 13.6084C18.3154 13.7669 18.2674 13.9467 18.2671 14.1297C18.2668 14.3127 18.3143 14.4926 18.4047 14.6514C18.4952 14.8103 18.6255 14.9425 18.7827 15.035C18.9398 15.1275 19.1184 15.177 19.3005 15.1786Z" fill="#E5E6EB"/>
<path d="M16.9063 12.7309L17.8924 11.0165C17.9836 10.8574 18.0316 10.6769 18.0316 10.4932C18.0315 10.3095 17.9833 10.1291 17.8919 9.96999C17.8005 9.81091 17.6691 9.67879 17.5108 9.58687C17.3525 9.49495 17.1729 9.44646 16.9901 9.44629H15.018C14.8352 9.44646 14.6556 9.49495 14.4973 9.58687C14.3391 9.67879 14.2076 9.81091 14.1162 9.96999C14.0248 10.1291 13.9766 10.3095 13.9766 10.4932C13.9765 10.6769 14.0245 10.8574 14.1158 11.0165L15.1018 12.7309C15.193 12.8903 15.3245 13.0227 15.4829 13.1147C15.6413 13.2068 15.8211 13.2553 16.0041 13.2553C16.1871 13.2553 16.3668 13.2068 16.5252 13.1147C16.6836 13.0227 16.8151 12.8903 16.9063 12.7309Z" fill="#E5E6EB"/>
<path d="M13.605 13.5938L12.6206 11.8795C12.5288 11.7206 12.3971 11.5886 12.2386 11.4969C12.0801 11.4052 11.9005 11.3569 11.7176 11.3569C11.5347 11.3569 11.355 11.4052 11.1965 11.4969C11.038 11.5886 10.9063 11.7206 10.8145 11.8795L9.83006 13.5938C9.73839 13.753 9.69007 13.9337 9.68994 14.1176C9.68982 14.3015 9.7379 14.4823 9.82936 14.6416C9.92081 14.8009 10.0524 14.9332 10.2109 15.0252C10.3694 15.1172 10.5493 15.1657 10.7323 15.1657H12.7028C12.8859 15.1657 13.0657 15.1172 13.2242 15.0252C13.3827 14.9332 13.5143 14.8009 13.6058 14.6416C13.6972 14.4823 13.7453 14.3015 13.7452 14.1176C13.745 13.9337 13.6967 13.753 13.605 13.5938Z" fill="#E5E6EB"/>
<path d="M12.698 16.8977H10.7275C10.5447 16.8979 10.3651 16.9464 10.2068 17.0383C10.0485 17.1302 9.91709 17.2623 9.82568 17.4214C9.73427 17.5805 9.68611 17.7609 9.68604 17.9446C9.68596 18.1283 9.73396 18.3088 9.82523 18.4679L10.8113 20.1839C10.9028 20.3429 11.0344 20.4749 11.1928 20.5666C11.3511 20.6584 11.5307 20.7067 11.7135 20.7067C11.8963 20.7067 12.0759 20.6584 12.2343 20.5666C12.3927 20.4749 12.5242 20.3429 12.6158 20.1839L13.6018 18.4679C13.6932 18.3087 13.7412 18.128 13.741 17.9442C13.7409 17.7604 13.6926 17.5798 13.601 17.4207C13.5094 17.2616 13.3777 17.1295 13.2192 17.0377C13.0607 16.9459 12.8809 16.8976 12.698 16.8977Z" fill="#E5E6EB"/>
<path d="M15.9993 18.5004C17.3537 18.5004 18.4516 17.3973 18.4516 16.0366C18.4516 14.6758 17.3537 13.5728 15.9993 13.5728C14.645 13.5728 13.5471 14.6758 13.5471 16.0366C13.5471 17.3973 14.645 18.5004 15.9993 18.5004Z" fill="#A5A5A5"/>
<path d="M15.9992 17.3786C16.7369 17.3786 17.3349 16.7777 17.3349 16.0366C17.3349 15.2954 16.7369 14.6946 15.9992 14.6946C15.2616 14.6946 14.6636 15.2954 14.6636 16.0366C14.6636 16.7777 15.2616 17.3786 15.9992 17.3786Z" fill="#515151"/>
</svg>
