<svg width="24" height="24" viewBox="0 0 24 24" fill="none" xmlns="http://www.w3.org/2000/svg">
<path d="M20.3996 6.47754H3.60077C3.49172 6.47754 3.40332 6.56697 3.40332 6.67728V7.92939C3.40332 8.03971 3.49172 8.12913 3.60077 8.12913H20.3996C20.5086 8.12913 20.597 8.03971 20.597 7.92939V6.67728C20.597 6.56697 20.5086 6.47754 20.3996 6.47754Z" fill="#37383A"/>
<path d="M21.2599 8.38672H2.73975V19.4834H21.2599V8.38672Z" fill="#C5C5C5"/>
<path d="M21.8023 19.0195H2.19745C2.0884 19.0195 2 19.109 2 19.2193V19.8004C2 19.9107 2.0884 20.0002 2.19745 20.0002H21.8023C21.9114 20.0002 21.9998 19.9107 21.9998 19.8004V19.2193C21.9998 19.109 21.9114 19.0195 21.8023 19.0195Z" fill="#505250"/>
<path d="M21.8023 7.87109H2.19745C2.0884 7.87109 2 7.96052 2 8.07083V8.65199C2 8.7623 2.0884 8.85173 2.19745 8.85173H21.8023C21.9114 8.85173 21.9998 8.7623 21.9998 8.65199V8.07083C21.9998 7.96052 21.9114 7.87109 21.8023 7.87109Z" fill="#505250"/>
<path d="M17.9125 10.0908H6.08762C5.80866 10.0908 5.58252 10.3196 5.58252 10.6018V17.2701C5.58252 17.5523 5.80866 17.7811 6.08762 17.7811H17.9125C18.1914 17.7811 18.4176 17.5523 18.4176 17.2701V10.6018C18.4176 10.3196 18.1914 10.0908 17.9125 10.0908Z" fill="white"/>
<path d="M11.8724 11.5352L10.2397 14.2691H11.5953L10.7499 17.2125L13.7601 13.4397H12.3316L13.6433 11.5352H11.8724Z" fill="#FFC300"/>
<path d="M5.04833 5.96094H6.73198C6.75905 5.96094 6.785 5.97181 6.80414 5.99117C6.82327 6.01053 6.83402 6.03679 6.83402 6.06416V7.87059H4.94629V6.06416C4.94629 6.03679 4.95704 6.01053 4.97618 5.99117C4.99531 5.97181 5.02127 5.96094 5.04833 5.96094Z" fill="#008FFF"/>
<path d="M18.0586 5.96094H19.7422C19.7693 5.96094 19.7953 5.97181 19.8144 5.99117C19.8335 6.01053 19.8443 6.03679 19.8443 6.06416V7.87059H17.9565V6.06416C17.9565 6.03679 17.9673 6.01053 17.9864 5.99117C18.0056 5.97181 18.0315 5.96094 18.0586 5.96094Z" fill="#F00C1E"/>
<path d="M8.27528 5.66398C8.27541 5.49648 8.34125 5.33587 8.45834 5.21743C8.57542 5.09898 8.73418 5.03238 8.89976 5.03225H15.0992C15.2648 5.03238 15.4235 5.09898 15.5406 5.21743C15.6577 5.33587 15.7235 5.49648 15.7237 5.66398V6.47739H16.7441V5.66398C16.7437 5.22279 16.5702 4.79979 16.2618 4.48782C15.9535 4.17585 15.5353 4.00041 15.0992 4H8.89976C8.46364 4.00041 8.04549 4.17585 7.73711 4.48782C7.42872 4.79979 7.25529 5.22279 7.25488 5.66398V6.47739H8.27528V5.66398Z" fill="#505250"/>
</svg>
