<svg width="24" height="24" viewBox="0 0 24 24" fill="none" xmlns="http://www.w3.org/2000/svg">
<circle cx="12" cy="12" r="10" fill="#505250"/>
<path d="M11.9997 18.5568C15.5888 18.5568 18.4984 15.6334 18.4984 12.0273C18.4984 8.42115 15.5888 5.4978 11.9997 5.4978C8.41054 5.4978 5.50098 8.42115 5.50098 12.0273C5.50098 15.6334 8.41054 18.5568 11.9997 18.5568Z" fill="#3C3C3C"/>
<path d="M11.9995 17.7069C15.1215 17.7069 17.6523 15.164 17.6523 12.0273C17.6523 8.8905 15.1215 6.34766 11.9995 6.34766C8.87754 6.34766 6.34668 8.8905 6.34668 12.0273C6.34668 15.164 8.87754 17.7069 11.9995 17.7069Z" fill="#C5C5C5"/>
<path d="M11.3193 14.504L10.581 15.791C10.5125 15.9103 10.4765 16.0457 10.4766 16.1835C10.4766 16.3212 10.5127 16.4566 10.5813 16.5759C10.6498 16.6952 10.7484 16.7943 10.8671 16.8632C10.9859 16.9321 11.1205 16.9685 11.2577 16.9686H12.7355C12.8727 16.9687 13.0076 16.9325 13.1264 16.8637C13.2453 16.7948 13.3441 16.6957 13.4128 16.5764C13.4815 16.457 13.5177 16.3216 13.5178 16.1838C13.5179 16.0459 13.4819 15.9104 13.4134 15.791L12.6739 14.504C12.605 14.3848 12.5063 14.2858 12.3874 14.2171C12.2685 14.1483 12.1338 14.1121 11.9966 14.1121C11.8594 14.1121 11.7246 14.1483 11.6058 14.2171C11.4869 14.2858 11.3881 14.3848 11.3193 14.504Z" fill="#E5E6EB"/>
<path d="M13.7948 13.8569L14.5344 15.1438C14.603 15.263 14.7017 15.362 14.8205 15.4309C14.9392 15.4997 15.0739 15.5359 15.2111 15.5359C15.3482 15.5359 15.4829 15.4997 15.6016 15.4309C15.7204 15.362 15.8191 15.263 15.8878 15.1438L16.6273 13.8569C16.6957 13.7375 16.7317 13.6021 16.7317 13.4644C16.7316 13.3266 16.6955 13.1913 16.627 13.072C16.5584 12.9527 16.4598 12.8536 16.3411 12.7846C16.2224 12.7157 16.0877 12.6793 15.9506 12.6792H14.4727C14.3355 12.6791 14.2007 12.7153 14.0818 12.7842C13.9629 12.853 13.8642 12.9521 13.7955 13.0714C13.7268 13.1908 13.6905 13.3262 13.6904 13.4641C13.6903 13.6019 13.7263 13.7374 13.7948 13.8569Z" fill="#E5E6EB"/>
<path d="M14.4753 11.3838H15.9604C16.0975 11.3837 16.2322 11.3473 16.3509 11.2784C16.4696 11.2095 16.5682 11.1104 16.6367 10.9911C16.7053 10.8718 16.7414 10.7364 16.7415 10.5987C16.7415 10.4609 16.7055 10.3255 16.6371 10.2062L15.8975 8.92041C15.8291 8.80087 15.7305 8.70157 15.6117 8.63252C15.4929 8.56347 15.3581 8.5271 15.2208 8.5271C15.0836 8.5271 14.9488 8.56347 14.83 8.63252C14.7111 8.70157 14.6126 8.80087 14.5441 8.92041L13.8046 10.2062C13.7364 10.3251 13.7004 10.4599 13.7002 10.5971C13.7 10.7344 13.7356 10.8693 13.8034 10.9885C13.8713 11.1076 13.969 11.2068 14.0869 11.2762C14.2047 11.3455 14.3387 11.3827 14.4753 11.3838Z" fill="#E5E6EB"/>
<path d="M12.6797 9.54815L13.4193 8.26241C13.4877 8.14304 13.5237 8.00767 13.5237 7.8699C13.5236 7.73213 13.4875 7.59681 13.4189 7.47749C13.3504 7.35818 13.2518 7.25909 13.1331 7.19015C13.0144 7.12121 12.8797 7.08485 12.7426 7.08472H11.2635C11.1264 7.08485 10.9917 7.12121 10.873 7.19015C10.7543 7.25909 10.6557 7.35818 10.5872 7.47749C10.5186 7.59681 10.4825 7.73213 10.4824 7.8699C10.4824 8.00767 10.5184 8.14304 10.5868 8.26241L11.3264 9.54815C11.3948 9.66769 11.4934 9.767 11.6122 9.83605C11.731 9.90511 11.8658 9.94146 12.003 9.94146C12.1403 9.94146 12.2751 9.90511 12.3939 9.83605C12.5127 9.767 12.6113 9.66769 12.6797 9.54815Z" fill="#E5E6EB"/>
<path d="M10.2039 10.1952L9.46559 8.90951C9.39675 8.7903 9.29796 8.69135 9.17909 8.62257C9.06023 8.55378 8.92546 8.51758 8.78829 8.51758C8.65112 8.51758 8.51635 8.55378 8.39749 8.62257C8.27862 8.69135 8.17982 8.7903 8.11099 8.90951L7.37267 10.1952C7.30392 10.3146 7.26767 10.4501 7.26758 10.5881C7.26748 10.726 7.30355 10.8616 7.37214 10.9811C7.44073 11.1006 7.53943 11.1998 7.65831 11.2688C7.77719 11.3378 7.91207 11.3742 8.04937 11.3742H9.52722C9.66451 11.3742 9.79938 11.3378 9.91827 11.2688C10.0371 11.1998 10.1358 11.1006 10.2044 10.9811C10.273 10.8616 10.3091 10.726 10.309 10.5881C10.3089 10.4501 10.2727 10.3146 10.2039 10.1952Z" fill="#E5E6EB"/>
<path d="M9.5236 12.6733H8.04574C7.90862 12.6735 7.77395 12.7098 7.65524 12.7788C7.53652 12.8477 7.43794 12.9468 7.36938 13.0661C7.30083 13.1854 7.26471 13.3208 7.26465 13.4585C7.26459 13.5963 7.30059 13.7316 7.36904 13.851L8.10858 15.138C8.17725 15.2572 8.27592 15.3562 8.39469 15.425C8.51347 15.4938 8.64817 15.5301 8.78527 15.5301C8.92238 15.5301 9.05708 15.4938 9.17585 15.425C9.29463 15.3562 9.3933 15.2572 9.46197 15.138L10.2015 13.851C10.27 13.7316 10.306 13.5961 10.3059 13.4582C10.3058 13.3204 10.2696 13.1849 10.2009 13.0656C10.1322 12.9463 10.0334 12.8472 9.91453 12.7783C9.79565 12.7095 9.66082 12.6733 9.5236 12.6733Z" fill="#E5E6EB"/>
<path d="M11.9993 13.8752C13.0151 13.8752 13.8385 13.0479 13.8385 12.0273C13.8385 11.0068 13.0151 10.1794 11.9993 10.1794C10.9836 10.1794 10.1602 11.0068 10.1602 12.0273C10.1602 13.0479 10.9836 13.8752 11.9993 13.8752Z" fill="#A5A5A5"/>
<path d="M11.9998 13.0337C12.5531 13.0337 13.0016 12.5831 13.0016 12.0272C13.0016 11.4714 12.5531 11.0208 11.9998 11.0208C11.4465 11.0208 10.998 11.4714 10.998 12.0272C10.998 12.5831 11.4465 13.0337 11.9998 13.0337Z" fill="#515151"/>
</svg>
