<svg width="24" height="24" viewBox="0 0 24 24" fill="none" xmlns="http://www.w3.org/2000/svg">
<path d="M5.11133 3.11111C5.11133 2.49746 5.60879 2 6.22244 2H8.44466C9.05831 2 9.55577 2.49746 9.55577 3.11111V4.22222C9.55577 4.83587 9.05831 5.33333 8.44466 5.33333H6.22244C5.60879 5.33333 5.11133 4.83587 5.11133 4.22222V3.11111Z" fill="#5A5C60"/>
<path fill-rule="evenodd" clip-rule="evenodd" d="M13.6577 4.54178L19.2242 10.026C19.4362 10.2349 19.5556 10.52 19.5556 10.8175V20.8888C19.5556 21.5025 19.0581 21.9999 18.4444 21.9999H5.11111C4.49746 21.9999 4 21.5025 4 20.8888V5.33328C4 4.71963 4.49746 4.22217 5.11111 4.22217H12.8779C13.1698 4.22217 13.4499 4.33697 13.6577 4.54178ZM11.8452 7.62265C11.1943 8.27352 11.1943 9.3288 11.8452 9.97967L14.2022 12.3367C14.8531 12.9876 15.9083 12.9876 16.5592 12.3367C17.2101 11.6858 17.2101 10.6305 16.5592 9.97967L14.2022 7.62265C13.5513 6.97178 12.4961 6.97178 11.8452 7.62265Z" fill="#FFBF66"/>
<path fill-rule="evenodd" clip-rule="evenodd" d="M13.6508 6.09471L12.8779 5.33328L5.11111 5.33328L5.11111 20.8888H18.4444V10.8175L18.0657 10.4444C18.3107 11.3696 18.0705 12.3968 17.3449 13.1224C16.2601 14.2072 14.5013 14.2072 13.4165 13.1224L11.0595 10.7653C9.97471 9.68056 9.97471 7.92177 11.0595 6.83698C11.7625 6.13398 12.7485 5.88656 13.6508 6.09471ZM19.2242 10.026L13.6577 4.54178C13.4499 4.33697 13.1698 4.22217 12.8779 4.22217H5.11111C4.49746 4.22217 4 4.71963 4 5.33328V20.8888C4 21.5025 4.49746 21.9999 5.11111 21.9999H18.4444C19.0581 21.9999 19.5556 21.5025 19.5556 20.8888V10.8175C19.5556 10.52 19.4362 10.2349 19.2242 10.026ZM11.8452 9.97967C11.1943 9.3288 11.1943 8.27352 11.8452 7.62265C12.4961 6.97178 13.5513 6.97178 14.2022 7.62265L16.5592 9.97967C17.2101 10.6305 17.2101 11.6858 16.5592 12.3367C15.9083 12.9876 14.8531 12.9876 14.2022 12.3367L11.8452 9.97967Z" fill="#FFBF66"/>
<path d="M11.7775 17C11.7775 18.2273 10.7825 19.2222 9.55523 19.2222C8.32793 19.2222 7.33301 18.2273 7.33301 17C7.33301 14.7778 9.55523 13.1111 9.55523 13.1111C9.55523 13.1111 11.7775 14.7778 11.7775 17Z" fill="white"/>
</svg>
