<svg width="26" height="26" viewBox="0 0 26 26" fill="none" xmlns="http://www.w3.org/2000/svg">
<path d="M20.0368 10.986C20.0368 15.6618 16.2463 19.4523 11.5705 19.4523C6.89472 19.4523 3.10425 15.6618 3.10425 10.986C3.10425 6.31025 6.89472 2.51978 11.5705 2.51978C16.2463 2.51978 20.0368 6.31025 20.0368 10.986Z" fill="#BEC0C4"/>
<path fill-rule="evenodd" clip-rule="evenodd" d="M11.5705 17.6381C15.2444 17.6381 18.2226 14.6599 18.2226 10.986C18.2226 7.31221 15.2444 4.33398 11.5705 4.33398C7.89668 4.33398 4.91845 7.31221 4.91845 10.986C4.91845 14.6599 7.89668 17.6381 11.5705 17.6381ZM11.5705 19.4523C16.2463 19.4523 20.0368 15.6618 20.0368 10.986C20.0368 6.31025 16.2463 2.51978 11.5705 2.51978C6.89472 2.51978 3.10425 6.31025 3.10425 10.986C3.10425 15.6618 6.89472 19.4523 11.5705 19.4523Z" fill="#5A5C60"/>
<path fill-rule="evenodd" clip-rule="evenodd" d="M14.7714 6.93005C15.0075 6.69389 15.3904 6.69389 15.6266 6.93005C16.3484 7.65189 17.5315 9.66355 17.0014 12.3141C16.9359 12.6416 16.6173 12.854 16.2898 12.7885C15.9623 12.723 15.7499 12.4044 15.8154 12.0769C16.2529 9.88964 15.259 8.2729 14.7714 7.78527C14.5352 7.54911 14.5352 7.16622 14.7714 6.93005Z" fill="white"/>
<path d="M15.199 17.5344L16.9094 15.824L22.5424 21.457C22.7377 21.6522 22.7377 21.9688 22.5424 22.1641L21.5391 23.1674C21.3438 23.3627 21.0272 23.3627 20.832 23.1674L15.199 17.5344Z" fill="#5A5C60"/>
<circle cx="15.8037" cy="14.0098" r="0.604733" fill="white"/>
</svg>
