<svg width="26" height="26" viewBox="0 0 26 26" fill="none" xmlns="http://www.w3.org/2000/svg">
<path d="M11.9582 8.83333C11.9582 8.25804 12.4245 7.79167 12.9998 7.79167C13.5751 7.79167 14.0415 8.25804 14.0415 8.83333C14.0415 9.40863 13.5751 9.875 12.9998 9.875C12.4245 9.875 11.9582 9.40863 11.9582 8.83333Z" fill="#FF3B30"/>
<path d="M14.0415 17.1668C14.0415 17.7421 13.5751 18.2085 12.9998 18.2085C12.4245 18.2085 11.9582 17.7421 11.9582 17.1668L11.9582 13.0002C11.9582 12.4249 12.4245 11.9585 12.9998 11.9585C13.5751 11.9585 14.0415 12.4249 14.0415 13.0002L14.0415 17.1668Z" fill="#FF3B30"/>
<path fill-rule="evenodd" clip-rule="evenodd" d="M12.9999 21.8541C17.8899 21.8541 21.8541 17.8899 21.8541 12.9999C21.8541 8.1099 17.8899 4.14575 12.9999 4.14575C8.1099 4.14575 4.14575 8.1099 4.14575 12.9999C4.14575 17.8899 8.1099 21.8541 12.9999 21.8541ZM12.9999 23.4166C18.7529 23.4166 23.4166 18.7529 23.4166 12.9999C23.4166 7.24695 18.7529 2.58325 12.9999 2.58325C7.24695 2.58325 2.58325 7.24695 2.58325 12.9999C2.58325 18.7529 7.24695 23.4166 12.9999 23.4166Z" fill="#96989C"/>
</svg>
